<mxfile host="app.diagrams.net" modified="2021-02-16T17:00:45.951Z" agent="5.0 (Macintosh; Intel Mac OS X 11_1_0) AppleWebKit/537.36 (KHTML, like Gecko) Chrome/88.0.4324.150 Safari/537.36" etag="KG-iK8j4OrsENtzacJrd" version="14.2.9" type="github" pages="2">
  <diagram id="ZJx_JwRwRRRoq5HQrWEe" name="Page-1">
    <mxGraphModel dx="706" dy="313" grid="1" gridSize="10" guides="1" tooltips="1" connect="1" arrows="1" fold="1" page="1" pageScale="1" pageWidth="850" pageHeight="1100" math="0" shadow="0">
      <root>
        <mxCell id="0" />
        <mxCell id="1" parent="0" />
        <mxCell id="3AF9C_CZbLRe6nph6lKN-1" value="We need to make the store available to our app.&lt;br&gt;&amp;nbsp;We wrap the app with the&amp;lt;provider/&amp;gt;&lt;br&gt;&lt;br&gt;" style="text;html=1;align=center;verticalAlign=middle;resizable=0;points=[];autosize=1;" vertex="1" parent="1">
          <mxGeometry x="165" y="90" width="270" height="50" as="geometry" />
        </mxCell>
        <mxCell id="3AF9C_CZbLRe6nph6lKN-2" value="Connect the components: React redux provides a connect function for you to read values from the redux store and re read when the store updates" style="rounded=0;whiteSpace=wrap;html=1;" vertex="1" parent="1">
          <mxGeometry x="165" y="170" width="265" height="60" as="geometry" />
        </mxCell>
        <mxCell id="3AF9C_CZbLRe6nph6lKN-3" value="" style="rounded=0;whiteSpace=wrap;html=1;" vertex="1" parent="1">
          <mxGeometry x="280" y="270" width="120" height="60" as="geometry" />
        </mxCell>
        <mxCell id="3AF9C_CZbLRe6nph6lKN-4" value="The connect function takes two arguments&lt;br&gt;1. mapStateToProps 2.mapDispatchToProps (both are optional)" style="rounded=0;whiteSpace=wrap;html=1;" vertex="1" parent="1">
          <mxGeometry x="160" y="270" width="270" height="60" as="geometry" />
        </mxCell>
        <mxCell id="3AF9C_CZbLRe6nph6lKN-5" value="mapStateToProps:Called every time when the store state changes.It receives the entire store and should return an object of data this component needs" style="rounded=0;whiteSpace=wrap;html=1;" vertex="1" parent="1">
          <mxGeometry x="160" y="350" width="270" height="60" as="geometry" />
        </mxCell>
        <mxCell id="3AF9C_CZbLRe6nph6lKN-6" value="mapDispatchToProps:this parameter cab either be a function or an object.If its a function,it will be called once on component creation" style="rounded=0;whiteSpace=wrap;html=1;" vertex="1" parent="1">
          <mxGeometry x="160" y="430" width="270" height="60" as="geometry" />
        </mxCell>
        <mxCell id="3AF9C_CZbLRe6nph6lKN-7" value="" style="rounded=0;whiteSpace=wrap;html=1;" vertex="1" parent="1">
          <mxGeometry x="165" y="510" width="265" height="60" as="geometry" />
        </mxCell>
      </root>
    </mxGraphModel>
  </diagram>
  <diagram id="vFGWsXocCeIQ4heOeYqM" name="Page-2">
    <mxGraphModel dx="706" dy="313" grid="1" gridSize="10" guides="1" tooltips="1" connect="1" arrows="1" fold="1" page="1" pageScale="1" pageWidth="850" pageHeight="1100" math="0" shadow="0">
      <root>
        <mxCell id="HXBI2x8wdJTFYBN5y6wc-0" />
        <mxCell id="HXBI2x8wdJTFYBN5y6wc-1" parent="HXBI2x8wdJTFYBN5y6wc-0" />
        <mxCell id="HXBI2x8wdJTFYBN5y6wc-3" value="&lt;b&gt;const mapStateToProps = (state, ownProps) =&amp;gt; ({  // ... computed data from state and optionally ownProps})&lt;br&gt;&lt;br&gt;&lt;br&gt;const mapDispatchToProps = {&lt;br&gt;&amp;nbsp;// ... normally is an object full of action creators&lt;br&gt;&lt;br&gt;}&lt;br&gt;&lt;/b&gt;&lt;br&gt;// `connect` returns a new function that accepts the component to wrap:&lt;br&gt;&lt;br&gt;&lt;b&gt;const connectToStore = connect(  mapStateToProps,&lt;br&gt;&amp;nbsp;mapDispatchToProps)&lt;/b&gt;&lt;br&gt;&lt;br&gt;&lt;br&gt;// and that function returns the connected, wrapper component:&lt;br&gt;const ConnectedComponent = connectToStore(Component)&lt;br&gt;// We normally do both in one step, like this:&lt;br&gt;&lt;br&gt;&lt;br&gt;&lt;b&gt;connect(  mapStateToProps,  mapDispatchToProps)(Component)&lt;/b&gt;" style="text;whiteSpace=wrap;html=1;" vertex="1" parent="HXBI2x8wdJTFYBN5y6wc-1">
          <mxGeometry x="150" y="100" width="550" height="100" as="geometry" />
        </mxCell>
      </root>
    </mxGraphModel>
  </diagram>
</mxfile>
